<svg xmlns="http://www.w3.org/2000/svg" width="35.678" height="36" fill="none">
  <path fill="#FACF5A" fill-rule="evenodd" d="M16.67 9.75a2.17 2.17 0 0 1 0-2.15l3.76-6.53A2.13 2.13 0 0 1 22.28 0h7.5c.77 0 1.47.41 1.85 1.07l3.76 6.53c.38.66.38 1.48 0 2.15l-3.76 6.53a2.13 2.13 0 0 1-1.85 1.07h-7.5c-.77 0-1.47-.41-1.85-1.07l-3.76-6.53ZM.28 19.07a2.17 2.17 0 0 1 0-2.15l3.75-6.53c.39-.66 1.09-1.07 1.86-1.07h7.5c.77 0 1.47.41 1.85 1.07L19 16.92c.38.66.38 1.49 0 2.15l-3.76 6.53a2.13 2.13 0 0 1-1.85 1.07h-7.5c-.77 0-1.47-.41-1.86-1.07L.28 19.07Zm16.39 7.17a2.17 2.17 0 0 0 0 2.15l3.76 6.53A2.14 2.14 0 0 0 22.28 36h7.5c.77 0 1.47-.42 1.85-1.08l3.76-6.53c.38-.66.38-1.48 0-2.15l-3.76-6.53a2.13 2.13 0 0 0-1.85-1.07h-7.5c-.77 0-1.47.41-1.85 1.07l-3.76 6.53Z"/>
</svg>
